<?xml version="1.0" encoding="UTF-8"?>
<svg version="1.1" xmlns="http://www.w3.org/2000/svg" width="2423" height="454">
  <path
    d="M0 0 C799.59 0 1599.18 0 2423 0 C2423 149.82 2423 299.64 2423 454 C1623.41 454 823.82 454 0 454 C0 304.18 0 154.36 0 0 Z "
    fill="#F66000"
    transform="translate(0,0)"
  />
  <path
    d="M0 0 C260.04 0 520.08 0 788 0 C785.98806942 4.02386115 784.10461623 6.14680027 780.95153809 9.3024292 C780.17317478 10.08547247 780.17317478 10.08547247 779.37908697 10.8843348 C777.63961712 12.63178009 775.89308799 14.37199187 774.14648438 16.11230469 C772.89780325 17.36369581 771.64954801 18.61551202 770.40168762 19.86772156 C767.01183003 23.26670253 763.61566963 26.65931996 760.21808052 30.05057049 C756.66725678 33.59633625 753.12130899 37.1469727 749.57458496 40.69683838 C743.61956187 46.65550075 737.66033216 52.60993171 731.69873047 58.56201172 C724.79782651 65.45202124 717.90417072 72.34921985 711.0142169 79.2501781 C705.10449315 85.16896391 699.19089813 91.08386063 693.27402163 96.99549603 C689.73733906 100.52905422 686.20203677 104.06396485 682.67021179 107.60237885 C679.3521745 110.9261736 676.02932105 114.2450756 672.70261192 117.5601902 C671.47938426 118.78076312 670.25787428 120.00306012 669.03817177 121.22715569 C667.37949661 122.89125543 665.71485097 124.54913561 664.04846191 126.20550537 C663.11636147 127.13685177 662.18426102 128.06819817 661.2239151 129.02776718 C659 131 659 131 657 131 C657 131.66 657 132.32 657 133 C655.125 135.125 655.125 135.125 653 137 C652.34 137 651.68 137 651 137 C651 137.66 651 138.32 651 139 C649.63671875 140.3046875 649.63671875 140.3046875 647.6875 141.875 C644.09279509 144.92103943 640.95220374 148.17489889 637.8125 151.6875 C633.38624907 156.63009503 628.70409408 161.16008692 623.79321289 165.61743164 C614.84903845 173.01680373 614.84903845 173.01680373 608 182 C607.34 182 606.68 182 606 182 C606 182.66 606 183.32 606 184 C605.29875 184.556875 604.5975 185.11375 603.875 185.6875 C600.89225593 188.0866637 598.70405467 190.6302638 596.33203125 193.609375 C595.89246094 194.06828125 595.45289063 194.5271875 593 195 C594.34 195 593.68 195 593 195 C592.7525 195.61875 592.505 196.2375 592.25 196.875 C590.79371361 199.35068687 589.62187494 199.95125002 587 201 C587 201.66 587 202.32 587 203 C586.34 203 585.68 203 585 203 C584.34 204.65 583.68 206.3 583 208 C583.556875 208.38929688 584.11375 208.77859375 584.6875 209.1796875 C588.98689848 212.33161139 592.52757799 215.4253649 595.75 219.6875 C598.73010648 223.60686935 601.9668255 226.9387526 605.63139343 230.2039032 C614.42677316 238.19241151 622.76137703 246.63706974 631.14770508 255.05004883 C632.93935109 256.84361785 634.73122775 258.6369565 636.52331543 260.43008423 C640.35726069 264.26717132 644.18970927 268.10574323 648.02082253 271.94565773 C653.56792784 277.50541169 659.11835389 283.06184136 664.66964599 288.61741456 C673.6906309 297.64543966 682.70974289 306.67533315 691.72729492 315.70678711 C692.26512742 316.24544742 692.80295992 316.78410773 693.35709038 317.33909108 C697.17560929 321.16351177 700.99406105 324.98799949 704.8125 328.8125 C709.18313781 333.19007175 713.55380987 337.5676093 717.92456055 341.94506836 C718.46324211 342.48457805 719.00192367 343.02408773 719.55692891 343.5799462 C728.55049259 352.58721263 737.54603338 361.59250203 746.5429756 370.59639376 C752.07885396 376.13673942 757.6129537 381.67885022 763.14472934 387.22329231 C767.38163288 391.46964525 771.62109545 395.71343381 775.86148834 399.95630264 C777.59575187 401.69243467 779.32915246 403.42942919 781.06161308 405.16736031 C783.43143905 407.54443225 785.80436638 409.91836609 788.17805481 412.2915802 C788.85792806 412.97504841 789.53780131 413.65851662 790.23827678 414.36269599 C794.11115286 418.22732462 798.09171776 421.90586946 802.24372786 425.4695732 C804.76847253 427.66965189 807.12812678 430.01611033 809.48828125 432.390625 C809.95815964 432.86191833 810.42803802 433.33321167 810.91215515 433.81878662 C812.38135212 435.29347795 813.84699867 436.77163701 815.3125 438.25 C816.31030974 439.25284017 817.30835524 440.25544582 818.30664062 441.2578125 C820.12816884 443.08743284 821.94804615 444.91863841 823.7668457 446.75097656 C825.08932524 448.08285384 826.42835061 449.39915148 827.80151367 450.67871094 C829 452 829 452 829 454 C555.43 454 281.86 454 0 454 C0 304.18 0 154.36 0 0 Z "
    fill="#F86C0F"
    transform="translate(0,0)"
  />
  <path
    d="M0 0 C66.99 0 133.98 0 203 0 C199.2668364 4.35535754 195.71918084 8.39682743 191.671875 12.390625 C191.19679504 12.86191833 190.72171509 13.33321167 190.23223877 13.81878662 C188.7406188 15.29836799 187.24574952 16.77459423 185.75 18.25 C183.76271838 20.21063225 181.77882269 22.17460269 179.796875 24.140625 C178.92385742 25.00204102 178.05083984 25.86345703 177.15136719 26.75097656 C174.87234741 29.00264138 174.87234741 29.00264138 173 32 C172.01 32 171.02 32 170 32 C170 32.66 170 33.32 170 34 C169.34 34 168.68 34 168 34 C168 34.66 168 35.32 168 36 C167.34 36 166.68 36 166 36 C166 36.66 166 37.32 166 38 C165.34 38 164.68 38 164 38 C163.74476563 38.57975586 163.48953125 39.15951172 163.2265625 39.75683594 C161.87415223 42.23015312 160.36267476 43.89602109 158.375 45.890625 C157.66859375 46.59960938 156.9621875 47.30859375 156.234375 48.0390625 C155.49703125 48.76867188 154.7596875 49.49828125 154 50.25 C153.26265625 50.99507812 152.5253125 51.74015625 151.765625 52.5078125 C151.05921875 53.21164063 150.3528125 53.91546875 149.625 54.640625 C148.65433594 55.60790527 148.65433594 55.60790527 147.6640625 56.59472656 C146 58 146 58 144 58 C143.62875 58.86625 143.62875 58.86625 143.25 59.75 C141.81700012 62.32939979 140.21575324 64.06121592 138 66 C137.34 66 136.68 66 136 66 C135.690625 66.79664062 135.690625 66.79664062 135.375 67.609375 C133.42038808 71.00773436 130.77876283 73.51055928 128 76.25 C127.4534375 76.80429688 126.906875 77.35859375 126.34375 77.9296875 C122.2533867 82 122.2533867 82 120 82 C119.690625 82.79664062 119.690625 82.79664062 119.375 83.609375 C117.42038808 87.00773436 114.77876283 89.51055928 112 92.25 C111.4534375 92.80429688 110.906875 93.35859375 110.34375 93.9296875 C106.2533867 98 106.2533867 98 104 98 C103.690625 98.79664062 103.690625 98.79664062 103.375 99.609375 C101.42038808 103.00773436 98.77876283 105.51055928 96 108.25 C95.4534375 108.80429688 94.906875 109.35859375 94.34375 109.9296875 C90.2533867 114 90.2533867 114 88 114 C87.690625 114.79664062 87.690625 114.79664062 87.375 115.609375 C85.42038808 119.00773436 82.77876283 121.51055928 80 124.25 C79.4534375 124.80429688 78.906875 125.35859375 78.34375 125.9296875 C74.2533867 130 74.2533867 130 72 130 C71.690625 130.79664063 71.690625 130.79664063 71.375 131.609375 C69.42038808 135.00773436 66.77876283 137.51055928 64 140.25 C63.4534375 140.80429688 62.906875 141.35859375 62.34375 141.9296875 C58.2533867 146 58.2533867 146 56 146 C55.773125 146.55171875 55.54625 147.1034375 55.3125 147.671875 C53.61274074 150.68692417 51.45195184 152.81230369 49 155.25 C48.113125 156.14203125 47.22625 157.0340625 46.3125 157.953125 C44 160 44 160 42 160 C42 160.66 42 161.32 42 162 C40.390625 163.5859375 40.390625 163.5859375 38.25 165.375 C35.93096298 167.33757727 33.74780716 169.2588295 31.625 171.4375 C30 173 30 173 28 173 C27.67 173.99 27.34 174.98 27 176 C26.34 176 25.68 176 25 176 C24.7421875 176.57234375 24.484375 177.1446875 24.21875 177.734375 C22.88634058 180.21128995 21.34943882 182.1341166 19.5 184.25 C18.8915625 184.95640625 18.283125 185.6628125 17.65625 186.390625 C16 188 16 188 14 188 C14 188.66 14 189.32 14 190 C13.34 190 12.68 190 12 190 C12 190.66 12 191.32 12 192 C11.34 192 10.68 192 10 192 C10 192.66 10 193.32 10 194 C8.53125 195.48046875 8.53125 195.48046875 6.5 197.1875 C5.76910156 197.81140625 5.03820313 198.4353125 4.28515625 199.078125 C2.83521416 200.29756347 1.38475475 201.51638732 -0.06640625 202.734375 C-6.93914209 208.59839227 -12.53987121 215.08071076 -17.640625 222.53125 C-18.08921875 223.0159375 -18.5378125 223.500625 -19 224 C-19.99 224 -20.98 224 -22 224 C-22 224.99 -22 225.98 -22 227 C-21.34 227 -20.68 227 -20 227 C-19.7525 227.78375 -19.505 228.5675 -19.25 229.375 C-17.76274262 232.49824049 -16.99055567 232.53775325 -14 234 C-12.16471481 235.58360291 -12.16471481 235.58360291 -10.25408936 237.49194336 C-9.1604155 238.57715775 -9.1604155 238.57715775 -8.04464722 239.68429565 C-6.8599736 240.87504196 -6.8599736 240.87504196 -5.65136719 242.08984375 C-4.39228043 243.34367355 -4.39228043 243.34367355 -3.10775757 244.62283325 C-0.8108882 246.91241256 1.48142716 249.2064303 3.7714777 251.50282669 C6.16812411 253.90453879 8.56964874 256.301365 10.97039795 258.69897461 C14.99884478 262.72378487 19.02306027 266.75278977 23.04492188 270.78417969 C27.69913954 275.44929608 32.36053851 280.10714377 37.02570462 284.76130962 C41.02943421 288.75597516 45.02926803 292.7545101 49.0258472 296.75632954 C51.41363583 299.14724083 53.80276623 301.5367692 56.19541168 303.92282104 C58.85811266 306.58047081 61.51436472 309.24439888 64.16894531 311.91015625 C64.96682465 312.70398712 65.76470398 313.49781799 66.58676147 314.31570435 C67.30459808 315.0391806 68.02243469 315.76265686 68.76202393 316.50805664 C69.39102222 317.13780899 70.02002052 317.76756134 70.66807938 318.41639709 C72 320 72 320 72 322 C72.66 322 73.32 322 74 322 C74 322.66 74 323.32 74 324 C74.57492187 324.24621094 75.14984375 324.49242187 75.7421875 324.74609375 C78.35639827 326.19793053 80.06336208 327.90287549 82.125 330.0625 C84.77905 332.91571933 84.77905 332.91571933 88 335 C88 335.66 88 336.32 88 337 C88.66 337 89.32 337 90 337 C90 337.66 90 338.32 90 339 C90.66 339 91.32 339 92 339 C93.55078125 340.609375 93.55078125 340.609375 95.3125 342.75 C97.98762235 345.91761349 100.73925686 348.43092965 104 351 C104 351.66 104 352.32 104 353 C104.66 353 105.32 353 106 353 C106 353.66 106 354.32 106 355 C106.66 355 107.32 355 108 355 C108 355.66 108 356.32 108 357 C108.66 357 109.32 357 110 357 C111.41674805 358.43579102 111.41674805 358.43579102 113.07421875 360.44140625 C117.09943594 365.17382667 121.40985372 369.55776428 125.8125 373.9375 C126.57498047 374.70384766 127.33746094 375.47019531 128.12304688 376.25976562 C128.85201172 376.98744141 129.58097656 377.71511719 130.33203125 378.46484375 C130.98921143 379.120896 131.6463916 379.77694824 132.32348633 380.45288086 C133.93380588 382.08270479 133.93380588 382.08270479 136 383 C136 383.66 136 384.32 136 385 C136.66 385 137.32 385 138 385 C138 385.66 138 386.32 138 387 C138.66 387 139.32 387 140 387 C140 387.66 140 388.32 140 389 C140.66 389 141.32 389 142 389 C143.41674805 390.43579102 143.41674805 390.43579102 145.07421875 392.44140625 C149.09943594 397.17382667 153.40985372 401.55776428 157.8125 405.9375 C158.57498047 406.70384766 159.33746094 407.47019531 160.12304688 408.25976562 C160.85201172 408.98744141 161.58097656 409.71511719 162.33203125 410.46484375 C162.98921143 411.120896 163.6463916 411.77694824 164.32348633 412.45288086 C165.93380588 414.08270479 165.93380588 414.08270479 168 415 C168 415.66 168 416.32 168 417 C168.66 417 169.32 417 170 417 C170 417.66 170 418.32 170 419 C170.66 419 171.32 419 172 419 C172 419.66 172 420.32 172 421 C172.66 421 173.32 421 174 421 C175.69140625 422.64453125 175.69140625 422.64453125 177.5625 424.8125 C178.18253906 425.52019531 178.80257813 426.22789062 179.44140625 426.95703125 C181 429 181 429 182 432 C182.66 432 183.32 432 184 432 C184 432.66 184 433.32 184 434 C184.66 434 185.32 434 186 434 C186 434.66 186 435.32 186 436 C186.66 436 187.32 436 188 436 C188 436.66 188 437.32 188 438 C188.8353125 438.3403125 188.8353125 438.3403125 189.6875 438.6875 C193.68438886 440.95600449 196.53966649 443.61899946 198 448 C198.78375 448.309375 199.5675 448.61875 200.375 448.9375 C203.38752024 450.15685343 204.1915194 451.38246229 206 454 C179.74886003 454.09338891 153.49774491 454.16395256 127.24647236 454.20724869 C115.05789453 454.22788503 102.86941984 454.25602622 90.6809082 454.30175781 C80.05897125 454.34159263 69.43710899 454.36742501 58.81509942 454.37635398 C53.18938115 454.38157438 47.56387657 454.3938667 41.9382267 454.42292023 C36.64494806 454.45003618 31.35197148 454.45845266 26.05862999 454.45243073 C24.11435684 454.45353267 22.17007376 454.46150917 20.2258606 454.4768219 C17.57352555 454.49669007 14.92233464 454.49195092 12.26997375 454.48101807 C11.49856641 454.49266943 10.72715906 454.5043208 9.93237573 454.51632524 C4.96090793 454.46084083 2.49665548 453.51857824 -1 450 C-2.06793369 448.85516528 -3.10275001 447.67840114 -4.09950256 446.47108459 C-8.91220514 440.85270599 -14.17547202 435.68462776 -19.40795898 430.46264648 C-20.54891244 429.3203355 -21.6896536 428.17781244 -22.8302002 427.03509521 C-25.90847642 423.9522865 -28.98987566 420.87261767 -32.07200885 417.79366565 C-35.30887361 414.5593462 -38.54328239 411.32257214 -41.77809143 408.0861969 C-47.20906982 402.65340314 -52.64214418 397.22271217 -58.07641602 391.79321289 C-64.3443134 385.5307569 -70.6086004 379.26470679 -76.87102455 372.99677795 C-82.26387893 367.59937442 -87.65869359 362.20393605 -93.05512863 356.81011254 C-96.27118409 353.59560994 -99.48657478 350.3804502 -102.70019341 347.16351128 C-105.72260571 344.13819403 -108.74748498 341.11536458 -111.77422333 338.09437561 C-112.87956287 336.99034966 -113.98406847 335.88548799 -115.08764076 334.77969551 C-120.39044793 329.46721078 -125.70524568 324.22110881 -131.43588352 319.36517429 C-133.49336747 317.56938464 -135.25042234 315.5932447 -137 313.5 C-139.51807407 310.58847686 -142.05831823 307.98204399 -145 305.5 C-148.64061505 302.42823105 -151.69800189 299.05774774 -154.75 295.40625 C-156.55447966 293.47645926 -158.30977001 291.85926239 -160.3190918 290.16503906 C-166.557474 284.73585175 -172.31284879 278.81047717 -178.14453125 272.953125 C-179.40364446 271.69214267 -180.66298163 270.43138394 -181.92253113 269.1708374 C-185.21640883 265.87316718 -188.50727258 262.57250553 -191.79748535 259.2711792 C-195.15157563 255.90682773 -198.50852394 252.54533066 -201.86523438 249.18359375 C-207.27816757 243.76189499 -212.68933806 238.33844442 -218.09831238 232.91279602 C-220.39721043 230.60686178 -222.69659585 228.30143405 -225 226 C-224.28199219 225.30390625 -223.56398438 224.6078125 -222.82421875 223.890625 C-219.94589737 221.01331533 -217.38625963 217.89793835 -214.8125 214.75 C-209.98069885 208.94198618 -204.77376196 203.88475556 -199 199 C-197.51811718 197.73233494 -196.03875583 196.46171352 -194.5625 195.1875 C-193.94503906 194.66542969 -193.32757812 194.14335937 -192.69140625 193.60546875 C-190.89984836 192.00255765 -190.89984836 192.00255765 -189.40234375 189.80078125 C-188.93957031 189.20652344 -188.47679687 188.61226562 -188 188 C-187.34 188 -186.68 188 -186 188 C-185.731875 187.360625 -185.46375 186.72125 -185.1875 186.0625 C-184 184 -184 184 -181 183 C-181 182.34 -181 181.68 -181 181 C-179.4609375 179.51953125 -179.4609375 179.51953125 -177.375 177.8125 C-174.66533223 175.5164131 -172.24703284 173.24982196 -170 170.5 C-167.92394834 167.96608948 -165.74346026 165.82701368 -163.24709988 163.7079134 C-159.35333522 160.34214545 -155.67770534 156.81840028 -152.04640198 153.17338562 C-151.39507087 152.5236145 -150.74373977 151.87384339 -150.07267135 151.20438224 C-147.91399807 149.04966379 -145.75887655 146.89142945 -143.60375977 144.7331543 C-142.04777852 143.17852946 -140.49158492 141.62411714 -138.93519592 140.06990051 C-134.72678815 135.86603625 -130.521531 131.65903367 -126.31698346 127.45130897 C-121.9147208 123.04650947 -117.51001313 118.64415601 -113.10569763 114.2414093 C-105.24484348 106.38248806 -97.3865077 98.52105329 -89.52916711 90.65861944 C-82.40212449 83.52710025 -75.27245094 76.39822011 -68.14086914 69.27124023 C-59.85061422 60.98633244 -51.56203511 52.69975278 -43.27593273 44.41069156 C-38.89237881 40.02557635 -34.50814657 35.64114507 -30.12216377 31.25845909 C-26.00524738 27.14442164 -21.89076635 23.02796428 -17.77818871 18.90958977 C-16.26528471 17.39535881 -14.75152039 15.88198689 -13.23685455 14.36951828 C-11.17716144 12.31253886 -9.12054325 10.25253473 -7.06471252 8.19169617 C-6.45831249 7.58752686 -5.85191246 6.98335755 -5.22713667 6.36088008 C-2.24899369 3.45690545 -2.24899369 3.45690545 0 0 Z "
    fill="#E85A00"
    transform="translate(1594,0)"
  />
  <path
    d="M0 0 C11.62572083 0.44182854 23.25248136 0.65181766 34.88454938 0.84642386 C58.74920148 1.25067685 82.59898003 1.93348457 106.45067728 2.80904448 C105.17254241 5.61003896 103.848725 7.66045309 101.67291677 9.83290064 C101.10422469 10.40557482 100.53553261 10.978249 99.94960743 11.56827694 C99.012125 12.49702085 99.012125 12.49702085 98.05570352 13.44452727 C97.39190347 14.11003617 96.72810341 14.77554508 96.0441882 15.46122092 C93.81421454 17.69449398 91.57715795 19.92053443 89.34008157 22.14669096 C87.74157874 23.74462975 86.14351598 25.34300886 84.5458616 26.94179595 C80.201077 31.28715557 75.85014205 35.6263099 71.49810517 39.96440446 C66.9471353 44.50288165 62.40181897 49.0470136 57.85590494 53.59055388 C50.21826425 61.22267907 42.57714261 68.85130078 34.93334329 74.91699219 C27.07294226 84.31932927 19.21462163 92.16347612 11.35912454 100.0104605 C10.87559672 100.49346287 10.39206891 100.97646523 9.89388873 101.47410404 C7.46744731 103.89793473 5.04104744 106.32180701 2.61466861 108.74570036 C-14.12084914 125.46399166 -30.86076122 142.17787466 -47.60524619 158.88718474 C-48.31225627 159.59271564 -49.01926636 160.29824653 -49.74770099 161.02515715 C-51.04744506 162.32215752 -52.34721653 163.61913044 -53.64702266 164.91606861 C-55.28131675 166.54686629 -56.91536811 168.17790669 -58.54932272 169.80904448 C-59.4648501 170.72284408 -60.38037747 171.63664368 -61.3236481 172.57813418 C-62.8719329 174.13006116 -64.40859699 175.69363288 -65.93604147 177.26607573 C-66.69529929 178.04338042 -67.4545571 178.82068511 -68.23682272 179.62154448 C-69.00381491 180.41173979 -69.7708071 181.20193511 -70.56104147 182.01607573 C-72.54932272 183.80904448 -72.54932272 183.80904448 -74.54932272 183.80904448 C-74.54932272 184.46904448 -74.54932272 185.12904448 -74.54932272 185.80904448 C-76.92432272 188.43404448 -76.92432272 188.43404448 -79.54932272 190.80904448 C-80.20932272 190.80904448 -80.86932272 190.80904448 -81.54932272 190.80904448 C-81.8148696 191.40072417 -82.08041647 191.99240386 -82.35401022 192.60201323 C-86.17968544 199.66575996 -94.1757803 205.30080507 -100.36572897 210.26607573 C-104.54472405 213.65975629 -107.68833711 217.37904909 -110.90479147 221.69185698 C-112.33952515 223.53894879 -113.79693477 225.13758074 -115.48682272 226.74654448 C-116.16744772 227.42716948 -116.84807272 228.10779448 -117.54932272 228.80904448 C-117.54932272 229.46904448 -117.54932272 230.12904448 -117.54932272 230.80904448 C-116.74268179 231.12721884 -116.74268179 231.12721884 -115.91974509 231.45182097 C-112.66359705 233.31618098 -110.23322348 235.87187225 -107.62256491 238.52462065 C-107.03986334 239.10863646 -106.45716177 239.69265227 -105.85680258 240.29436553 C-103.93196347 242.2256932 -102.01420065 244.16389847 -100.09619772 246.10201323 C-98.75395607 247.45052969 -97.41119503 248.79852935 -96.06793845 250.14603484 C-92.52892878 253.6983513 -88.99551829 257.25618092 -85.4636904 260.81563628 C-79.82656939 266.49583729 -74.18285341 272.16946397 -68.535689 277.83967841 C-66.57251764 279.81299274 -64.61284491 281.78973154 -62.65350974 283.76685393 C-54.57659384 291.90127353 -54.57659384 291.90127353 -46.0274111 299.53348601 C-43.99173173 301.29023352 -42.27140272 303.24869877 -40.54932272 305.30904448 C-38.03124866 308.22056762 -35.49100449 310.82700049 -32.54932272 313.30904448 C-28.90870768 316.38081343 -25.85132084 319.75129674 -22.79932272 323.40279448 C-20.96971496 325.35945834 -19.17266966 327.01475716 -17.13750327 328.73871672 C-11.46491675 333.67618805 -6.19770668 339.0207097 -0.88843405 344.34053862 C0.26697402 345.49458924 1.42259419 346.64842755 2.5784086 347.80207121 C5.69620578 350.91533603 8.81086346 354.03172368 11.92480385 357.14884555 C15.19342548 360.42001134 18.46450035 363.68872251 21.7351774 366.95783293 C27.22344184 372.44428218 32.70960368 377.93282729 38.19457376 383.42256987 C44.52750343 389.76094634 50.8640347 396.09570512 57.20243794 402.42860764 C62.65670695 407.87833347 68.10901833 413.33001211 73.55970877 418.78331715 C76.80991679 422.0350806 80.06078818 425.28617311 83.31343019 428.53550208 C86.36992639 431.58910186 89.42395109 434.64515246 92.47611558 437.70308173 C93.59387994 438.82216395 94.712488 439.94040421 95.8320173 441.05772078 C97.36484514 442.58779888 98.89453251 444.12095198 100.42350137 445.65488493 C101.27867444 446.51043502 102.1338475 447.36598511 103.0149349 448.24746096 C105.61961875 450.98671421 108.03082374 453.90522024 110.45067728 456.80904448 C45.11067728 456.80904448 -20.22932272 456.80904448 -87.54932272 456.80904448 C-87.54932272 456.14904448 -87.54932272 455.48904448 -87.54932272 454.80904448 C-88.53932272 454.80904448 -89.52932272 454.80904448 -90.54932272 454.80904448 C-92.23682272 453.43404448 -92.23682272 453.43404448 -93.54932272 451.80904448 C-93.54932272 451.14904448 -93.54932272 450.48904448 -93.54932272 449.80904448 C-94.37289771 449.47393607 -94.37289771 449.47393607 -95.21311057 449.13205779 C-98.2505223 447.41195025 -100.50371783 445.10942178 -102.92871726 442.64083159 C-103.71481375 441.85276373 -103.71481375 441.85276373 -104.51679099 441.04877532 C-106.24322074 439.31586864 -107.96256584 437.57610029 -109.68213522 435.83638823 C-110.88181035 434.63044141 -112.08200294 433.42500915 -113.28269064 432.22007048 C-116.43931458 429.05015379 -119.59032033 425.87471575 -122.73975241 422.69765532 C-127.78674886 417.60750718 -132.84050913 412.52409602 -137.89749396 407.44387305 C-139.66478373 405.66634029 -141.4286331 403.88544494 -143.19217551 402.10419524 C-144.27090795 401.01863701 -145.34974924 399.93318693 -146.42871726 398.84786284 C-146.9201824 398.34966033 -147.41164755 397.85145781 -147.91800559 397.33815825 C-150.48414553 394.74387236 -150.48414553 394.74387236 -153.54932272 392.80904448 C-153.54932272 392.14904448 -153.54932272 391.48904448 -153.54932272 390.80904448 C-154.20932272 390.80904448 -154.86932272 390.80904448 -155.54932272 390.80904448 C-155.54932272 390.14904448 -155.54932272 389.48904448 -155.54932272 388.80904448 C-156.20932272 388.80904448 -156.86932272 388.80904448 -157.54932272 388.80904448 C-157.54932272 387.48904448 -157.54932272 386.16904448 -157.54932272 384.80904448 C-158.20932272 384.80904448 -158.86932272 384.80904448 -159.54932272 384.80904448 C-161.24072897 383.16451323 -161.24072897 383.16451323 -163.11182272 380.99654448 C-163.73186179 380.28884917 -164.35190085 379.58115386 -164.99072897 378.85201323 C-166.54932272 376.80904448 -166.54932272 376.80904448 -167.54932272 373.80904448 C-168.20932272 373.80904448 -168.86932272 373.80904448 -169.54932272 373.80904448 C-169.54932272 373.14904448 -169.54932272 372.48904448 -169.54932272 371.80904448 C-170.20932272 371.80904448 -170.86932272 371.80904448 -171.54932272 371.80904448 C-171.54932272 371.14904448 -171.54932272 370.48904448 -171.54932272 369.80904448 C-172.20932272 369.80904448 -172.86932272 369.80904448 -173.54932272 369.80904448 C-174.70647993 368.41364902 -175.85952794 367.01462578 -176.99072897 365.59810698 C-180.42221762 361.65920523 -184.53007983 358.23129383 -188.79541647 355.22701323 C-189.37420554 354.75908354 -189.9529946 354.29115386 -190.54932272 353.80904448 C-190.54932272 353.14904448 -190.54932272 352.48904448 -190.54932272 351.80904448 C-191.20932272 351.80904448 -191.86932272 351.80904448 -192.54932272 351.80904448 C-193.854994 350.31423391 -195.09183298 348.75922848 -196.29932272 347.18404448 C-200.236849 342.26053602 -204.4130973 337.71267494 -208.86182272 333.24654448 C-209.75949362 332.33558012 -209.75949362 332.33558012 -210.67529929 331.40621245 C-211.24860983 330.83660796 -211.82192038 330.26700346 -212.41260397 329.68013823 C-212.92089743 329.17410063 -213.42919089 328.66806304 -213.95288718 328.14669096 C-215.49831351 326.729449 -215.49831351 326.729449 -217.44291651 325.95455706 C-219.85032291 324.64535359 -221.11040724 323.25192045 -222.84825766 321.1431967 C-226.31272686 317.05386075 -229.97197321 313.24479446 -233.76636374 309.46260893 C-234.45025168 308.77696867 -235.13413962 308.09132842 -235.83875144 307.38491118 C-238.07442161 305.14488037 -240.31368141 302.90847947 -242.55322897 300.67232573 C-244.12083404 299.10404612 -245.68829071 297.53561816 -247.25560629 295.96704924 C-250.52954272 292.69164382 -253.80526752 289.41804046 -257.08228171 286.1457144 C-261.27413127 281.95957109 -265.46146235 277.76894128 -269.64746821 273.57695544 C-272.87905131 270.34175322 -276.11301928 267.1089434 -279.34770644 263.876845 C-280.89254632 262.33267016 -282.43664936 260.78775777 -283.97998869 259.24208319 C-286.1381354 257.08138674 -288.29947936 254.9239389 -290.46167624 252.76729643 C-291.40867644 251.81725989 -291.40867644 251.81725989 -292.37480795 250.84803069 C-295.95389185 247.2858935 -299.63289804 243.99641182 -303.54932272 240.80904448 C-305.92432272 238.62154448 -305.92432272 238.62154448 -307.54932272 236.80904448 C-307.54932272 236.14904448 -307.54932272 235.48904448 -307.54932272 234.80904448 C-308.86932272 234.14904448 -310.18932272 233.48904448 -311.54932272 232.80904448 C-311.54932272 232.14904448 -311.54932272 231.48904448 -311.54932272 230.80904448 C-312.20932272 230.80904448 -312.86932272 230.80904448 -313.54932272 230.80904448 C-315.54932272 227.80904448 -315.54932272 227.80904448 -315.38576376 225.85526335 C-314.36215741 223.35117455 -313.08468481 221.97687664 -311.16626608 220.06954253 C-310.45139533 219.35167067 -309.73652457 218.63379881 -308.99999106 217.89417326 C-308.22091895 217.12744795 -307.44184683 216.36072264 -306.63916647 215.57076323 C-305.83830115 214.77177107 -305.03743582 213.97277892 -304.21230185 213.14957488 C-302.51343739 211.45743716 -300.81097691 209.76890331 -299.10523093 208.08370268 C-296.51445677 205.52384872 -293.93428122 202.95370364 -291.35596335 200.38131011 C-289.70098059 198.73550794 -288.04540012 197.09030657 -286.38916647 195.44576323 C-285.62426398 194.68511061 -284.85936148 193.92445799 -284.07128012 193.1407553 C-279.94143556 189.06475213 -275.73453895 185.13695585 -271.32538474 181.36396086 C-268.36768467 178.7745376 -265.61838837 175.98415248 -262.86182272 173.18404448 C-262.04874655 172.36420073 -262.04874655 172.36420073 -261.2192446 171.52779448 C-260.15500792 170.45457148 -259.09166657 169.38045976 -258.02930319 168.30538237 C-254.93630549 165.17819944 -251.82019228 162.07466311 -248.68994772 158.98482573 C-247.72639371 158.03041111 -246.76285211 157.07598396 -245.79932272 156.12154448 C-245.30561179 155.63621245 -244.81190085 155.15088042 -244.30322897 154.65084136 C-241.58316997 151.99064231 -241.58316997 151.99064231 -239.54932272 148.80904448 C-238.88932272 148.80904448 -238.22932272 148.80904448 -237.54932272 148.80904448 C-237.54932272 148.14904448 -237.54932272 147.48904448 -237.54932272 146.80904448 C-236.14868796 145.42745268 -236.14868796 145.42745268 -234.17041647 143.79732573 C-229.05808088 139.44896711 -224.34438678 134.75103547 -219.61182272 129.99654448 C-218.75008444 129.13867339 -217.88834616 128.28080229 -217.0004946 127.39693511 C-216.18258444 126.57773589 -215.36467429 125.75853667 -214.52197897 124.91451323 C-213.41221701 123.80305937 -213.41221701 123.80305937 -212.28003561 122.6691519 C-210.48483604 120.91495378 -210.48483604 120.91495378 -209.54932272 118.80904448 C-208.88932272 118.80904448 -208.22932272 118.80904448 -207.54932272 118.80904448 C-207.54932272 118.14904448 -207.54932272 117.48904448 -207.54932272 116.80904448 C-206.88932272 116.80904448 -206.22932272 116.80904448 -205.54932272 116.80904448 C-205.54932272 116.14904448 -205.54932272 115.48904448 -205.54932272 114.80904448 C-204.18384421 113.46260893 -204.18384421 113.46260893 -202.23291647 111.85982573 C-196.74093372 107.18855365 -191.69679145 102.10265653 -186.61182272 96.99654448 C-185.6451937 96.03348535 -184.67839782 95.07059367 -183.7114321 94.10787261 C-182.80328757 93.19843901 -181.89514304 92.28900542 -180.95947897 91.35201323 C-180.1358486 90.52725493 -179.31221823 89.70249663 -178.46362936 88.85274565 C-176.50326752 86.95448514 -176.50326752 86.95448514 -175.54932272 84.80904448 C-174.88932272 84.80904448 -174.22932272 84.80904448 -173.54932272 84.80904448 C-173.54932272 84.14904448 -173.54932272 83.48904448 -173.54932272 82.80904448 C-172.14868796 81.42745268 -172.14868796 81.42745268 -170.17041647 79.79732573 C-165.05808088 75.44896711 -160.34438678 70.75103547 -155.61182272 65.99654448 C-154.75008444 65.13867339 -153.88834616 64.28080229 -153.0004946 63.39693511 C-152.18258444 62.57773589 -151.36467429 61.75853667 -150.52197897 60.91451323 C-149.41221701 59.80305937 -149.41221701 59.80305937 -148.28003561 58.6691519 C-146.48483604 56.91495378 -146.48483604 56.91495378 -145.54932272 54.80904448 C-144.88932272 54.80904448 -144.22932272 54.80904448 -143.54932272 54.80904448 C-143.54932272 54.14904448 -143.54932272 53.48904448 -143.54932272 52.80904448 C-142.88932272 52.80904448 -142.22932272 52.80904448 -141.54932272 52.80904448 C-141.54932272 52.14904448 -141.54932272 51.48904448 -141.54932272 50.80904448 C-140.88932272 50.80904448 -140.22932272 50.80904448 -139.54932272 50.80904448 C-139.54932272 50.14904448 -139.54932272 49.48904448 -139.54932272 48.80904448 C-138.88932272 48.80904448 -138.22932272 48.80904448 -137.54932272 48.80904448 C-137.54932272 48.14904448 -137.54932272 47.48904448 -137.54932272 46.80904448 C-136.37695933 45.74407573 -135.15359658 44.73491528 -133.90956748 43.75461638 C-130.14441138 40.55497451 -127.78000035 37.35365906 -125.27264082 33.1326586 C-97.49701055 -12.67524716 -46.82215884 -3.81171349 0 0 Z "
    fill="#FF6D12"
    transform="translate(1487.5493227243423,-2.8090444803237915)"
  />
  <path
    d="M0 0 C2.00159533 0.00310693 4.00320318 0.00135309 6.00479126 -0.00486755 C11.41210433 -0.00801113 16.8167083 0.05644572 22.22339416 0.13344598 C27.88335114 0.20242616 33.5433771 0.20868881 39.20368958 0.22172546 C49.91016624 0.25585231 60.61540059 0.346033 71.32133132 0.45656985 C83.51464876 0.5797184 95.70802699 0.64005112 107.90181196 0.69521964 C132.97404719 0.81005588 158.04518139 1.00341337 183.11645508 1.2487793 C181.83832021 4.04977377 180.5145028 6.10018791 178.33869457 8.27263546 C177.77000249 8.84530964 177.20131041 9.41798382 176.61538523 10.00801176 C175.6779028 10.93675567 175.6779028 10.93675567 174.72148132 11.88426208 C174.05768127 12.54977099 173.39388121 13.2152799 172.709966 13.90095574 C170.47999235 16.1342288 168.24293575 18.36026924 166.00585938 20.58642578 C164.40735655 22.18436457 162.80929379 23.78274368 161.2116394 25.38153076 C156.8668548 29.72689039 152.51591985 34.06604472 148.16388297 38.40413928 C143.6129131 42.94261646 139.06759677 47.48674841 134.52168274 52.0302887 C126.88404205 59.66241388 119.24292042 67.29103559 111.59912109 74.91699219 C103.73872006 82.75906409 95.88039943 90.60321094 88.02490234 98.45019531 C87.54137453 98.93319768 87.05784671 99.41620005 86.55966654 99.91383886 C84.13322511 102.33766954 81.70682524 104.76154182 79.28044641 107.18543518 C62.54492867 123.90372648 45.80501658 140.61760947 29.06053162 157.32691956 C28.35352153 158.03245045 27.64651145 158.73798135 26.91807681 159.46489197 C25.61833274 160.76189234 24.31856127 162.05886525 23.01875514 163.35580343 C16.8009035 169.55324479 16.8009035 169.55324479 10.61645508 175.78393555 C9.79145508 176.61795898 8.96645508 177.45198242 8.11645508 178.3112793 C7.29145508 179.14788086 6.46645508 179.98448242 5.61645508 180.84643555 C3.11645508 183.2487793 3.11645508 183.2487793 0.50708008 185.32299805 C-1.68961861 187.09256088 -3.35468211 188.82461364 -5.13354492 190.9987793 C-8.36617489 194.79360578 -11.91419324 197.97933941 -15.68041992 201.2331543 C-18.48534719 203.79936435 -20.88646831 206.6146244 -23.33666992 209.5144043 C-25.30358103 211.71972887 -27.57844595 213.40470012 -29.88354492 215.2487793 C-31.71761898 217.24180644 -33.48298787 219.28115436 -35.23510742 221.34643555 C-36.88354492 223.2487793 -36.88354492 223.2487793 -38.53198242 224.80737305 C-40.13990656 226.32082175 -40.13990656 226.32082175 -40.88354492 229.2487793 C-40.29969402 229.50745191 -39.71584312 229.76612452 -39.11429977 230.03263569 C-36.70630841 231.34540356 -35.12322011 232.76553515 -33.19146729 234.70707703 C-32.47391266 235.42332748 -31.75635803 236.13957794 -31.01705933 236.87753296 C-30.23984528 237.66350861 -29.46263123 238.44948425 -28.66186523 239.25927734 C-27.8353244 240.08713242 -27.00878357 240.91498749 -26.15719604 241.76792908 C-23.42073475 244.51089058 -20.69131501 247.26075481 -17.96166992 250.01049805 C-16.05952984 251.92012853 -14.15572763 253.82809821 -12.25189209 255.73603821 C-7.74575546 260.25355445 -3.24431236 264.77571435 1.25509953 269.29992753 C9.29450039 277.38358427 17.33934734 285.46181094 25.38959432 293.53466636 C28.66331211 296.81807887 31.93246503 300.10599438 35.20062256 303.39494324 C36.92602891 305.12718312 38.65154795 306.85931076 40.37719727 308.59130859 C41.14631439 309.36716309 41.91543152 310.14301758 42.70785522 310.94238281 C46.8203621 315.0634419 51.01965383 319.00552645 55.45053482 322.78347492 C57.55952803 324.63849587 59.37646781 326.66017911 61.17895508 328.8112793 C64.02212808 332.09869808 66.94408053 334.89493088 70.30345249 337.63751602 C72.17729954 339.30285338 73.75351471 341.0554966 75.37449646 342.9664917 C78.90196736 347.04684094 82.61118504 350.89147938 86.42529297 354.70288086 C87.11893448 355.39988098 87.81257599 356.0968811 88.52723694 356.81500244 C90.79524786 359.09242628 93.0669293 361.36614245 95.33911133 363.6394043 C96.92906312 365.23257338 98.51894127 366.82581596 100.10874939 368.41912842 C103.42961324 371.74595788 106.75251505 375.07073642 110.07666016 378.39428711 C114.33078658 382.64831159 118.57797245 386.90919376 122.82344913 391.1718483 C126.09972823 394.45925087 129.38054728 397.74209339 132.66265678 401.02367401 C134.23071415 402.59290926 135.79715523 404.16376134 137.36192513 405.73627472 C139.54889205 407.93305632 141.74212488 410.12339116 143.93701172 412.31225586 C144.57769592 412.95855957 145.21838013 413.60486328 145.878479 414.27075195 C149.41485959 417.78257209 152.90471536 420.58924022 157.11645508 423.2487793 C158.98754883 425.14331055 158.98754883 425.14331055 160.55395508 427.0612793 C166.09682816 434.02607381 166.09682816 434.02607381 173.11645508 439.2487793 C173.11645508 439.9087793 173.11645508 440.5687793 173.11645508 441.2487793 C173.77645508 441.2487793 174.43645508 441.2487793 175.11645508 441.2487793 C175.11645508 441.9087793 175.11645508 442.5687793 175.11645508 443.2487793 C175.77645508 443.2487793 176.43645508 443.2487793 177.11645508 443.2487793 C177.11645508 443.9087793 177.11645508 444.5687793 177.11645508 445.2487793 C177.77645508 445.2487793 178.43645508 445.2487793 179.11645508 445.2487793 C179.44645508 446.2387793 179.77645508 447.2287793 180.11645508 448.2487793 C181.75014117 449.61708177 181.75014117 449.61708177 183.67895508 450.8112793 C185.62036133 452.06518555 185.62036133 452.06518555 187.11645508 453.2487793 C187.11645508 453.9087793 187.11645508 454.5687793 187.11645508 455.2487793 C165.5764338 455.36557754 144.03646472 455.45375034 122.49619102 455.50784016 C112.49466746 455.5336225 102.49334064 455.56877365 92.49194336 455.62597656 C83.77477977 455.67581054 75.05775868 455.70807009 66.3404566 455.71922177 C61.72457785 455.72574054 57.10910673 455.74106205 52.49335861 455.77742958 C48.14800096 455.81138904 43.80321853 455.82183243 39.45774078 455.8143177 C37.86379749 455.81569228 36.26983479 455.82562546 34.67600632 455.84480667 C32.49662899 455.86974635 30.31941316 455.86368415 28.13998413 455.85005188 C26.92137381 455.85466084 25.70276348 455.85926981 24.44722557 455.86401844 C18.55496702 454.7756372 15.16722871 450.56637829 11.42895508 446.0612793 C9.35536711 443.56820686 7.86103942 442.07850219 5.11645508 440.2487793 C5.11645508 439.5887793 5.11645508 438.9287793 5.11645508 438.2487793 C4.51704102 438.15081055 3.91762695 438.0528418 3.30004883 437.9519043 C0.64921468 437.09832622 -0.10401978 436.16669433 -1.82104492 433.9987793 C-5.24923983 429.88943649 -8.91426202 426.09150356 -12.69604492 422.3112793 C-13.27153076 421.73152344 -13.8470166 421.15176758 -14.43994141 420.55444336 C-17.38098844 417.53209446 -17.38098844 417.53209446 -20.88354492 415.2487793 C-20.88354492 414.5887793 -20.88354492 413.9287793 -20.88354492 413.2487793 C-21.54354492 413.2487793 -22.20354492 413.2487793 -22.88354492 413.2487793 C-22.88354492 412.5887793 -22.88354492 411.9287793 -22.88354492 411.2487793 C-23.54354492 411.2487793 -24.20354492 411.2487793 -24.88354492 411.2487793 C-24.88354492 410.5887793 -24.88354492 409.9287793 -24.88354492 409.2487793 C-25.54354492 409.2487793 -26.20354492 409.2487793 -26.88354492 409.2487793 C-26.88354492 408.5887793 -26.88354492 407.9287793 -26.88354492 407.2487793 C-27.54354492 407.2487793 -28.20354492 407.2487793 -28.88354492 407.2487793 C-28.88354492 406.5887793 -28.88354492 405.9287793 -28.88354492 405.2487793 C-29.54354492 405.2487793 -30.20354492 405.2487793 -30.88354492 405.2487793 C-30.88354492 404.5887793 -30.88354492 403.9287793 -30.88354492 403.2487793 C-31.54354492 403.2487793 -32.20354492 403.2487793 -32.88354492 403.2487793 C-32.88354492 402.5887793 -32.88354492 401.9287793 -32.88354492 401.2487793 C-33.54354492 401.2487793 -34.20354492 401.2487793 -34.88354492 401.2487793 C-34.88354492 400.5887793 -34.88354492 399.9287793 -34.88354492 399.2487793 C-35.54354492 399.2487793 -36.20354492 399.2487793 -36.88354492 399.2487793 C-36.88354492 398.5887793 -36.88354492 397.9287793 -36.88354492 397.2487793 C-37.54354492 397.2487793 -38.20354492 397.2487793 -38.88354492 397.2487793 C-38.88354492 396.5887793 -38.88354492 395.9287793 -38.88354492 395.2487793 C-39.54354492 395.2487793 -40.20354492 395.2487793 -40.88354492 395.2487793 C-40.88354492 394.5887793 -40.88354492 393.9287793 -40.88354492 393.2487793 C-41.54354492 393.2487793 -42.20354492 393.2487793 -42.88354492 393.2487793 C-42.88354492 392.5887793 -42.88354492 391.9287793 -42.88354492 391.2487793 C-43.54354492 391.2487793 -44.20354492 391.2487793 -44.88354492 391.2487793 C-44.88354492 390.5887793 -44.88354492 389.9287793 -44.88354492 389.2487793 C-45.54354492 389.2487793 -46.20354492 389.2487793 -46.88354492 389.2487793 C-46.88354492 388.5887793 -46.88354492 387.9287793 -46.88354492 387.2487793 C-47.54354492 387.2487793 -48.20354492 387.2487793 -48.88354492 387.2487793 C-51.00854492 385.3737793 -51.00854492 385.3737793 -52.88354492 383.2487793 C-52.88354492 382.5887793 -52.88354492 381.9287793 -52.88354492 381.2487793 C-53.54354492 381.2487793 -54.20354492 381.2487793 -54.88354492 381.2487793 C-54.88354492 380.5887793 -54.88354492 379.9287793 -54.88354492 379.2487793 C-55.54354492 379.2487793 -56.20354492 379.2487793 -56.88354492 379.2487793 C-56.88354492 378.5887793 -56.88354492 377.9287793 -56.88354492 377.2487793 C-57.54354492 377.2487793 -58.20354492 377.2487793 -58.88354492 377.2487793 C-58.88354492 376.5887793 -58.88354492 375.9287793 -58.88354492 375.2487793 C-59.54354492 375.2487793 -60.20354492 375.2487793 -60.88354492 375.2487793 C-60.88354492 374.5887793 -60.88354492 373.9287793 -60.88354492 373.2487793 C-61.54354492 373.2487793 -62.20354492 373.2487793 -62.88354492 373.2487793 C-62.88354492 372.5887793 -62.88354492 371.9287793 -62.88354492 371.2487793 C-63.54354492 371.2487793 -64.20354492 371.2487793 -64.88354492 371.2487793 C-64.88354492 370.5887793 -64.88354492 369.9287793 -64.88354492 369.2487793 C-65.54354492 369.2487793 -66.20354492 369.2487793 -66.88354492 369.2487793 C-66.88354492 368.5887793 -66.88354492 367.9287793 -66.88354492 367.2487793 C-67.54354492 367.2487793 -68.20354492 367.2487793 -68.88354492 367.2487793 C-68.88354492 366.5887793 -68.88354492 365.9287793 -68.88354492 365.2487793 C-69.54354492 365.2487793 -70.20354492 365.2487793 -70.88354492 365.2487793 C-70.88354492 364.5887793 -70.88354492 363.9287793 -70.88354492 363.2487793 C-71.54354492 363.2487793 -72.20354492 363.2487793 -72.88354492 363.2487793 C-72.88354492 362.5887793 -72.88354492 361.9287793 -72.88354492 361.2487793 C-73.54354492 361.2487793 -74.20354492 361.2487793 -74.88354492 361.2487793 C-74.88354492 360.5887793 -74.88354492 359.9287793 -74.88354492 359.2487793 C-75.54354492 359.2487793 -76.20354492 359.2487793 -76.88354492 359.2487793 C-76.88354492 358.5887793 -76.88354492 357.9287793 -76.88354492 357.2487793 C-77.54354492 357.2487793 -78.20354492 357.2487793 -78.88354492 357.2487793 C-78.88354492 356.5887793 -78.88354492 355.9287793 -78.88354492 355.2487793 C-79.54354492 355.2487793 -80.20354492 355.2487793 -80.88354492 355.2487793 C-80.88354492 354.5887793 -80.88354492 353.9287793 -80.88354492 353.2487793 C-81.54354492 353.2487793 -82.20354492 353.2487793 -82.88354492 353.2487793 C-84.36401367 351.7097168 -84.36401367 351.7097168 -86.07104492 349.6237793 C-88.99361122 346.16090662 -92.04185394 343.27367022 -95.59838867 340.4753418 C-96.02249023 340.07057617 -96.4465918 339.66581055 -96.88354492 339.2487793 C-96.88354492 338.5887793 -96.88354492 337.9287793 -96.88354492 337.2487793 C-97.54354492 337.2487793 -98.20354492 337.2487793 -98.88354492 337.2487793 C-100.29370117 335.7800293 -100.29370117 335.7800293 -101.94604492 333.7487793 C-104.57925524 330.63929185 -107.29681657 327.90811449 -110.38354492 325.2487793 C-113.97182859 322.14539882 -117.01731675 318.86801269 -120.07104492 315.2487793 C-122.04834819 313.06692741 -124.15695054 311.17448255 -126.38354492 309.2487793 C-129.97182859 306.14539882 -133.01731675 302.86801269 -136.07104492 299.2487793 C-138.04834819 297.06692741 -140.15695054 295.17448255 -142.38354492 293.2487793 C-145.96432467 290.1518887 -149.00741955 286.88656231 -152.04760742 283.26831055 C-154.80813147 280.23173409 -157.91782948 277.63877542 -161.06323242 275.01049805 C-162.88354492 273.2487793 -162.88354492 273.2487793 -163.88354492 270.2487793 C-165.50522604 268.56661964 -165.50522604 268.56661964 -167.50854492 266.9362793 C-168.22268555 266.32655273 -168.93682617 265.71682617 -169.67260742 265.08862305 C-171.09637605 263.90382618 -172.52812856 262.72852546 -173.96948242 261.56518555 C-174.91694336 260.78981445 -174.91694336 260.78981445 -175.88354492 259.9987793 C-176.46104492 259.53987305 -177.03854492 259.0809668 -177.63354492 258.6081543 C-178.88354492 257.2487793 -178.88354492 257.2487793 -178.88354492 254.2487793 C-179.4783667 253.97541748 -180.07318848 253.70205566 -180.68603516 253.42041016 C-182.81640239 252.28457721 -184.2922817 251.14815596 -186.04370117 249.50268555 C-186.65995361 248.92518555 -187.27620605 248.34768555 -187.91113281 247.75268555 C-188.58265381 247.11202148 -189.2541748 246.47135742 -189.94604492 245.8112793 C-190.65688232 245.13838867 -191.36771973 244.46549805 -192.10009766 243.7722168 C-203.91867407 232.49604773 -215.3752917 220.83971589 -226.88354492 209.2487793 C-225.29446216 205.88955677 -223.53223062 203.62798937 -220.88354492 200.9987793 C-220.18229492 200.29237305 -219.48104492 199.5859668 -218.75854492 198.8581543 C-216.88354492 197.2487793 -216.88354492 197.2487793 -214.88354492 197.2487793 C-214.88354492 196.5887793 -214.88354492 195.9287793 -214.88354492 195.2487793 C-213.80489631 194.10054045 -212.71299008 192.96318406 -211.57495117 191.8737793 C-209.46974384 189.85122444 -207.43236697 187.76588499 -205.38354492 185.6862793 C-203.04866047 183.34367622 -200.7922431 181.17658716 -198.19604492 179.1237793 C-196.16206649 177.47460759 -194.72483324 175.93939723 -193.07104492 173.9362793 C-190.19613173 170.46242586 -186.98070968 167.60965739 -183.52026367 164.72924805 C-181.77165607 163.32777215 -181.77165607 163.32777215 -180.88354492 161.2487793 C-180.22354492 161.2487793 -179.56354492 161.2487793 -178.88354492 161.2487793 C-178.63217773 160.6712793 -178.38081055 160.0937793 -178.12182617 159.4987793 C-175.41527273 154.58087777 -170.70806474 150.67279477 -166.32104492 147.2487793 C-164.11339427 145.43737363 -162.47052138 143.66784074 -160.63354492 141.4987793 C-157.31056649 137.58293467 -153.64018202 134.2996642 -149.70385742 131.01049805 C-147.63833372 129.28278333 -147.63833372 129.28278333 -146.88354492 126.2487793 C-145.28198242 124.63549805 -145.28198242 124.63549805 -143.25854492 122.9362793 C-142.53795898 122.32268555 -141.81737305 121.7090918 -141.07495117 121.0769043 C-139.71028119 119.93846303 -138.34346751 118.80258037 -136.97338867 117.6706543 C-133.12756288 114.45875583 -130.02453032 111.15378817 -126.88354492 107.2487793 C-124.69604492 104.8737793 -124.69604492 104.8737793 -122.88354492 103.2487793 C-122.22354492 103.2487793 -121.56354492 103.2487793 -120.88354492 103.2487793 C-120.88354492 102.5887793 -120.88354492 101.9287793 -120.88354492 101.2487793 C-120.22354492 101.2487793 -119.56354492 101.2487793 -118.88354492 101.2487793 C-118.88354492 100.5887793 -118.88354492 99.9287793 -118.88354492 99.2487793 C-118.22354492 99.2487793 -117.56354492 99.2487793 -116.88354492 99.2487793 C-116.88354492 98.5887793 -116.88354492 97.9287793 -116.88354492 97.2487793 C-116.22354492 97.2487793 -115.56354492 97.2487793 -114.88354492 97.2487793 C-114.65666992 96.6712793 -114.42979492 96.0937793 -114.19604492 95.4987793 C-112.53592853 92.65286549 -110.49166535 91.25036009 -107.88354492 89.2487793 C-105.02188411 86.53387032 -102.4090828 83.70917374 -99.88354492 80.6862793 C-97.45159347 77.80650046 -94.87799884 75.55220539 -91.88354492 73.2487793 C-89.02188411 70.53387032 -86.4090828 67.70917374 -83.88354492 64.6862793 C-81.45159347 61.80650046 -78.87799884 59.55220539 -75.88354492 57.2487793 C-72.72553046 54.26146832 -69.8602155 51.0860301 -67.00854492 47.8112793 C-63.55892527 43.88381859 -59.88663744 40.59830569 -55.88354492 37.2487793 C-55.55354492 36.5887793 -55.22354492 35.9287793 -54.88354492 35.2487793 C-54.22354492 35.2487793 -53.56354492 35.2487793 -52.88354492 35.2487793 C-52.88354492 34.5887793 -52.88354492 33.9287793 -52.88354492 33.2487793 C-51.44995117 31.83862305 -51.44995117 31.83862305 -49.44604492 30.1862793 C-44.6613382 26.12267199 -40.28377292 21.72010613 -35.88354492 17.2487793 C-35.10792111 16.49645177 -34.33229731 15.74412424 -33.53316975 14.96899891 C-30.85129921 12.32062081 -30.85129921 12.32062081 -28.68804455 9.39815044 C-20.44324756 -0.61606436 -12.3574081 -0.26948754 0 0 Z "
    fill="#FF7B2B"
    transform="translate(1010.883544921875,-1.248779296875)"
  />
  <path
    d="M0 0 C0.66 0.33 1.32 0.66 2 1 C-0.62512064 5.37520107 -2.67680817 7.44538665 -7 10 C-12.54771614 14.77215495 -12.54771614 14.77215495 -16 21 C-16.66 21 -17.32 21 -18 21 C-18 21.66 -18 22.32 -18 23 C-18.66 23 -19.32 23 -20 23 C-20 23.66 -20 24.32 -20 25 C-20.70125 25.4125 -21.4025 25.825 -22.125 26.25 C-26.54214422 28.93869648 -30.34009985 32.02029956 -32 37 C-32.66 37 -33.32 37 -34 37 C-34 37.66 -34 38.32 -34 39 C-34.66 39 -35.32 39 -36 39 C-36 39.66 -36 40.32 -36 41 C-37.65071396 42.02611949 -39.31970006 43.02308143 -41 44 C-42.75149165 45.58245275 -42.75149165 45.58245275 -44 47 C-44.66 46.67 -45.32 46.34 -46 46 C-30.82 30.82 -15.64 15.64 0 0 Z "
    fill="#FF8C42"
    transform="translate(1088,107)"
  />
  <path
    d="M0 0 C0.33 0.66 0.66 1.32 1 2 C0.34 2 -0.32 2 -1 2 C-1 2.66 -1 3.32 -1 4 C-1.66 4 -2.32 4 -3 4 C-3 4.66 -3 5.32 -3 6 C-3.66 6 -4.32 6 -5 6 C-5.66 7.98 -6.32 9.96 -7 12 C-7.66 12 -8.32 12 -9 12 C-9 12.66 -9 13.32 -9 14 C-9.66 14 -10.32 14 -11 14 C-11 14.66 -11 15.32 -11 16 C-11.66 16 -12.32 16 -13 16 C-13 16.66 -13 17.32 -13 18 C-14.32 18 -15.64 18 -17 18 C-17 18.66 -17 19.32 -17 20 C-17.66 20 -18.32 20 -19 20 C-15.08887029 11.61117506 -7.59831685 5.06554457 0 0 Z "
    fill="#FF944D"
    transform="translate(1397,198)"
  />
  <path
    d="M0 0 C0 3 0 3 -1.8125 4.875 C-2.8953125 5.926875 -2.8953125 5.926875 -4 7 C-4.4125 7.78375 -4.825 8.5675 -5.25 9.375 C-7.35212976 12.52819464 -9.73233825 14.1337858 -12.79296875 16.30859375 C-16.53975744 19.1800265 -19.7468065 22.59106851 -23 26 C-23.66 25.67 -24.32 25.34 -25 25 C-16.75 16.75 -8.5 8.5 0 0 Z "
    fill="#FF7D30"
    transform="translate(1193,2)"
  />
  <path
    d="M0 0 C0.33 1.32 0.66 2.64 1 4 C0.34 4 -0.32 4 -1 4 C-1 4.66 -1 5.32 -1 6 C-1.66 6 -2.32 6 -3 6 C-3 6.66 -3 7.32 -3 8 C-3.66 8 -4.32 8 -5 8 C-5 8.66 -5 9.32 -5 10 C-5.66 10 -6.32 10 -7 10 C-7 10.66 -7 11.32 -7 12 C-7.99 12.33 -8.98 12.66 -10 13 C-10.33 13.99 -10.66 14.98 -11 16 C-11.66 16 -12.32 16 -13 16 C-13 16.66 -13 17.32 -13 18 C-14.32 17.67 -15.64 17.34 -17 17 C-11.39 11.39 -5.78 5.78 0 0 Z "
    fill="#FF7E32"
    transform="translate(1591,4)"
  />
  <path
    d="M0 0 C0.66 0.33 1.32 0.66 2 1 C1.36191406 1.61488281 0.72382812 2.22976562 0.06640625 2.86328125 C-0.75988281 3.67152344 -1.58617187 4.47976562 -2.4375 5.3125 C-3.26121094 6.11300781 -4.08492187 6.91351563 -4.93359375 7.73828125 C-7.19403477 9.90470808 -7.19403477 9.90470808 -8 13 C-8.66 13 -9.32 13 -10 13 C-10 13.66 -10 14.32 -10 15 C-11.65071396 16.02611949 -13.31970006 17.02308143 -15 18 C-16.75149165 19.58245275 -16.75149165 19.58245275 -18 21 C-18.66 20.67 -19.32 20.34 -20 20 C-13.4 13.4 -6.8 6.8 0 0 Z "
    fill="#FF7F34"
    transform="translate(1476,119)"
  />
  <path
    d="M0 0 C0.33 0.99 0.66 1.98 1 3 C0.27425781 4.39832031 -0.45148438 4.79664063 -1.19921875 5.20703125 C-4.15924053 7.10194059 -6.36788362 9.16991 -8.8125 11.6875 C-9.99779297 12.89986328 -9.99779297 12.89986328 -11.20703125 14.13671875 C-12.09455078 15.05904297 -12.09455078 15.05904297 -13 16 C-13.66 15.67 -14.32 15.34 -15 15 C-10.05 10.05 -5.1 5.1 0 0 Z "
    fill="#FF8B40"
    transform="translate(1167,28)"
  />
  <path
    d="M0 0 C0 3 0 3 -1.27734375 4.5 C-1.82519531 4.995 -2.37304688 5.49 -2.9375 6 C-5.27535925 8.12231195 -5.96275884 8.88827651 -7 12 C-8.32 11.67 -9.64 11.34 -11 11 C-7.37 7.37 -3.74 3.74 0 0 Z "
    fill="#FF8E45"
    transform="translate(1247,150)"
  />
  <path
    d="M0 0 C0.33 1.32 0.66 2.64 1 4 C-0.2065625 4.6496875 -0.2065625 4.6496875 -1.4375 5.3125 C-4.27846354 6.80474002 -4.27846354 6.80474002 -5 10 C-6.32 9.67 -7.64 9.34 -9 9 C-6.03 6.03 -3.06 3.06 0 0 Z "
    fill="#FF8D43"
    transform="translate(639,150)"
  />
  <path
    d="M0 0 C0 0.99 0 1.98 0 3 C-0.66 3 -1.32 3 -2 3 C-2 3.66 -2 4.32 -2 5 C-4.90548882 7.04169485 -6.40142046 8 -10 8 C-8.71451591 6.66070495 -7.42141845 5.32871357 -6.125 4 C-5.04605469 2.88625 -5.04605469 2.88625 -3.9453125 1.75 C-2 0 -2 0 0 0 Z "
    fill="#FF8A3E"
    transform="translate(672,119)"
  />
  <path
    d="M0 0 C0 3 0 3 -1.9375 5 C-2.618125 5.66 -3.29875 6.32 -4 7 C-4.33 7.99 -4.66 8.98 -5 10 C-5.66 10 -6.32 10 -7 10 C-7.33 9.01 -7.66 8.02 -8 7 C-5.36 4.69 -2.72 2.38 0 0 Z "
    fill="#FF7A2E"
    transform="translate(1377,218)"
  />
  <path
    d="M0 0 C0 3.57575896 -1.08840607 5.05295935 -3 8 C-4.32 7.67 -5.64 7.34 -7 7 C-4.69 4.69 -2.38 2.38 0 0 Z "
    fill="#FF7426"
    transform="translate(1405,190)"
  />
</svg>